<?xml version="1.0" encoding="UTF-8"?>
<svg id="Layer_2" data-name="Layer 2" xmlns="http://www.w3.org/2000/svg" viewBox="0 0 1456.45 320.98">
  <defs>
    <style>
      .cls-1, .cls-2, .cls-3 {
        stroke-width: 0px;
      }

      .cls-1, .cls-4, .cls-5 {
        fill: #f0f6fc;
      }

      .cls-2 {
        fill: #2c94c4;
      }

      .cls-4 {
        letter-spacing: -.06em;
      }

      .cls-4, .cls-5 {
        font-family: Montserrat-Bold, Montserrat;
        font-size: 180px;
        font-weight: 700;
      }

      .cls-3 {
        fill: #8ccb8a;
      }

      .cls-5 {
        letter-spacing: -.06em;
      }
    </style>
  </defs>
  <g id="Layer_1-2" data-name="Layer 1">
    <rect class="cls-1" width="320.98" height="320.98" rx="42.45" ry="42.45"/>
    <g>
      <path class="cls-3" d="M215.28,147.11c-2.42,7.52-6.12,13.88-10.06,20.21,16.36-10.46,30.64-23.04,41.09-40.13-.13.93-.19,1.61-.32,2.29-2.88,15.45-11.07,27.87-22.28,38.45-14.49,13.68-31.88,21.77-51.27,25.77-20.12,4.15-39.69,2.17-58.74-5.39-12.21-4.85-23.36-11.4-32.94-20.48-9.18-8.7-16.2-18.82-20.23-30.88-.93-2.79-1.47-5.7-1.98-8.68,10.42,15.91,24.07,28.37,40.26,38.99-1.82-3.27-3.42-6.01-4.89-8.82-3.38-6.45-5.48-13.32-6.68-20.48-.21-1.25-.72-2.01-1.88-2.64-7.14-3.92-13.44-8.89-18.27-15.51-6.5-8.9-8.2-18.83-6-29.55,2.09-10.2,6.85-19.08,13.15-27.23,9.53-12.35,21.54-21.5,35.69-27.96,9.87-4.51,20.22-7.4,30.92-8.72,15.31-1.89,30.35-.07,44.91,5,12.22,4.26,23.4,10.51,33.01,19.23,10.48,9.53,18.98,20.52,23.31,34.27,2.38,7.56,3.25,15.23,1.06,23-2.97,10.54-9.75,18.16-18.77,23.91-13.62,8.67-28.53,13.95-44.46,16.28-6.93,1.01-13.93,1.6-20.9,2.28-1.29.13-1.43.73-1.43,1.75,0,10.19,0,20.37-.06,30.56,0,1.43.65,1.58,1.79,1.45,5.3-.57,10.36-2.06,15.16-4.33,11.79-5.57,20.41-14.44,26.52-25.84,1.04-1.93,2.27-3.21,4.48-3.76,3.17-.79,6.25-1.91,9.83-3.03ZM217.36,124.17c7.2-5.19,13.47-10.67,15.57-19.22,2.51-10.19-.62-19.36-6-28.12-.64.49-1.07.77-1.45,1.1-7.02,6.12-15.12,10.49-23.57,14.21-13.47,5.92-27.72,8.63-42.35,9.41-1.47.08-2.03.5-2.02,2.04.04,11.53.03,23.07-.03,34.6,0,1.53.59,1.87,1.96,1.75,3.53-.31,7.07-.41,10.59-.82,12.06-1.4,23.8-4.14,35.13-8.58,1.47-.57,1.91-1.37,1.94-2.86.12-8.36-.96-16.57-3.19-24.62-.65-2.34-1.43-4.63-2.2-7.09,2.74-1.26,5.32-2.41,7.86-3.63,1.01-.48,1.43,0,1.74.81,2.35,6.28,4.33,12.67,5.07,19.36.41,3.69.62,7.4.97,11.66ZM147.22,120.94c0-5.41.02-10.82,0-16.23-.02-3,.66-2.81-2.96-3.21-6.9-.76-13.84-1.38-20.63-2.75-6.15-1.24-12.11-3.41-18.15-5.18-.83-.24-1.54-.57-1.99.63-4.02,10.56-6.31,21.43-6.17,32.79.03,2.12.95,3.16,2.81,3.76,3.92,1.26,7.78,2.7,11.73,3.85,11.05,3.2,22.37,4.66,33.83,5.27,1.45.08,1.55-.62,1.55-1.73-.03-5.73-.01-11.46,0-17.2ZM98.47,141.2c3.88,12.86,10.35,23.43,20.47,31.55,8.18,6.56,17.46,10.61,28.29,11.38,0-11.09-.01-21.84.01-32.58,0-1.31-.85-1.16-1.69-1.23-5-.4-10.02-.63-14.99-1.26-8.75-1.11-17.42-2.67-25.74-5.75-1.91-.71-3.86-1.29-6.37-2.11ZM108.43,83.56c12.71,4.93,25.48,6.94,38.63,7.73v-45.98c-17.54,8.29-29.28,21.8-38.63,38.25ZM158.15,45.64c-.18.17-.35.33-.53.5-.03.63-.1,1.26-.1,1.89,0,13.78.03,27.56-.04,41.34,0,1.66.63,1.94,2.04,1.84,11.2-.79,22.19-2.65,32.88-6.15,3.79-1.24,3.83-1.41,1.8-4.81-6.95-11.65-15.75-21.61-27.04-29.24-2.89-1.95-6-3.59-9.01-5.37ZM86.81,124.01c.18-1.16.36-1.76.36-2.37,0-6.23,1.04-12.32,2.67-18.28,1.2-4.39,2.9-8.65,4.27-13,.2-.63.14-1.81-.26-2.1-4.94-3.58-9.97-7.03-14.97-10.54-.74-.52-1.33-.71-1.9.24-3.92,6.6-6.41,13.64-6.21,21.4.2,7.83,4.01,13.98,9.51,19.2,1.93,1.84,4.1,3.43,6.52,5.44ZM167.53,37.92c2.48,1.76,4.5,3.2,6.54,4.63,7.76,5.44,14.44,12.06,20.2,19.51,3.8,4.92,7.01,10.31,10.39,15.55.76,1.18,1.4,1.55,2.57.67,3.91-2.93,7.82-5.85,11.74-8.76,1.47-1.1,1.41-2.22.16-3.46-2.24-2.22-4.34-4.58-6.66-6.7-12.43-11.35-27.02-18.39-43.53-21.5-.29-.05-.6.02-1.4.06ZM136.59,37.83c-.35,0-.72-.08-1.04.01-5.13,1.44-10.38,2.59-15.37,4.42-13.61,4.99-25.29,12.94-34.88,23.88-.93,1.06-1.22,1.86.07,2.83,4.17,3.13,8.3,6.3,12.46,9.43.38.28.91.36,1.39.53,9.01-16.95,21.26-30.73,37.36-41.11Z"/>
      <path class="cls-2" d="M40.96,174c0-4.63-.36-9.3.11-13.88.38-3.64,1.6-7.23,2.78-10.73.66-1.98,2.59-2.76,4.36-2.41,1.69.34,2.8,1.62,2.69,3.69-.19,3.4-.68,6.78-.97,10.18-1.08,12.74,2.3,24.24,9.77,34.56,7.02,9.69,15.82,17.29,26.9,21.97,3.36,1.42,6.96,2.29,10.49,3.26.75.21,2.19-.02,2.42-.49.33-.68.18-2.06-.33-2.62-2.94-3.21-5.97-6.35-9.12-9.36-4.36-4.19-8.94-8.15-13.23-12.41-1.27-1.26-2.18-3.08-2.74-4.8-1.07-3.3.97-5.69,4.43-5.32,1.71.18,3.45.61,5.04,1.25,11.11,4.43,21.73,9.8,31.3,17.05,11.32,8.57,18.93,19.64,22.37,33.54,2.77,11.2,2.79,22.44.97,33.73-.86,5.33-3.38,8.85-9.84,4.22-6.07-4.34-12.18-8.7-18.59-12.5-7.86-4.66-16.04-8.78-24.11-13.09-22.22-11.86-38.8-29.15-49.76-51.79-6.47-13.38-9.24-27.56-8.17-42.4.45-6.23,1.2-12.45,3.7-18.29.96-2.24,2.37-4.01,4.96-4.39,2.98-.43,5.51,1.44,5.58,4.72.07,2.85-.43,5.77-1.05,8.58-1.66,7.51-3.01,15.03-2.43,22.76.1,1.34.35,2.68.7,3.98.14.52.71.93,1.09,1.39.22-.13.45-.27.67-.4Z"/>
      <path class="cls-2" d="M264.81,173.98c.36-.98.9-1.94,1.03-2.95.83-6.32.29-12.6-.84-18.84-.62-3.42-1.36-6.81-1.92-10.24-.25-1.51-.31-3.09-.2-4.62.13-1.94,1.16-3.42,3.04-4.1,1.89-.68,3.66-.48,5.18,1.01,2.68,2.65,3.34,6.16,4.11,9.61,2,8.88,2.45,17.88,1.47,26.9-1.08,9.93-3.95,19.36-8.37,28.36-4.41,8.97-9.97,17.12-16.41,24.7-8.61,10.14-19,18.13-30.51,24.67-7.11,4.04-14.54,7.53-21.56,11.7-7.69,4.57-15.06,9.66-22.58,14.51-1.24.8-2.49,1.61-3.83,2.24-2.85,1.33-5.11.37-5.93-2.71-.74-2.79-1.34-5.66-1.62-8.53-1.15-12.06-.24-23.87,4-35.37,3.68-9.97,9.86-18.04,17.95-24.71,10.05-8.28,21.62-13.93,33.61-18.76,1.42-.57,2.96-.92,4.47-1.2,1.67-.32,3.22.07,4.36,1.45,1.19,1.45,1.12,3.15.14,4.51-2.17,3.01-4.31,6.12-6.95,8.69-3.96,3.85-8.42,7.19-12.52,10.91-1.94,1.76-3.65,3.81-5.24,5.9-.57.75-.47,2-.68,3.02,1.02.16,2.1.63,3.05.45,11.23-2.16,20.63-7.73,28.76-15.64,6.35-6.17,11.62-13.07,14.86-21.41,2.66-6.84,3.77-13.91,3.24-21.21-.25-3.4-.88-6.78-1.1-10.18-.08-1.33.16-2.92.85-4.01,1.34-2.13,4.82-1.71,5.98.97,1.34,3.08,2.37,6.43,2.8,9.75.57,4.45.42,8.99.59,13.49.02.49.09.97.13,1.46.21.06.42.13.63.19Z"/>
      <path class="cls-2" d="M235.67,191.64c.96-2.23,1.86-4.39,2.82-6.53,2.95-6.54,4.42-13.39,4.62-20.55.07-2.52,1.25-3.74,3.4-3.81,2.34-.07,3.62,1.09,3.92,3.57,1.3,10.78-4.59,22.18-14.17,27.36-.09.05-.23-.01-.59-.04Z"/>
      <path class="cls-2" d="M69.02,192.37c-8.14-5.22-13.48-12.05-14.62-21.67-.25-2.15-.21-4.38.03-6.54.34-3.07,3.47-4.62,5.6-2.81.77.66,1.41,1.97,1.39,2.97-.14,9.37,3.13,17.76,7.13,25.97.2.4.33.83.46,1.26.05.16,0,.35,0,.82Z"/>
    </g>
    <text class="cls-5" transform="translate(433.06 217.82)"><tspan x="0" y="0">Care</tspan></text>
    <text class="cls-4" transform="translate(842.3 219.98)"><tspan x="0" y="0">Sphere</tspan></text>
  </g>
</svg>